<?xml version="1.0" encoding="iso-8859-1"?>
<!-- Generator: Adobe Illustrator 18.0.0, SVG Export Plug-In . SVG Version: 6.00 Build 0)  -->
<!DOCTYPE svg PUBLIC "-//W3C//DTD SVG 1.1//EN" "http://www.w3.org/Graphics/SVG/1.1/DTD/svg11.dtd">
<svg version="1.1" id="Capa_1" xmlns="http://www.w3.org/2000/svg" xmlns:xlink="http://www.w3.org/1999/xlink" x="0px" y="0px"
	 viewBox="0 0 352.752 352.752" style="enable-background:new 0 0 352.752 352.752;" xml:space="preserve">
<g>
	<g>
		<path style="fill:#FFBBD2;" d="M168.317,55.773c-1.682-8.914-6.832-18.045-14.5-25.713C144.386,20.631,132.634,15,122.38,15
			c-3.752,0-9.037,0.814-12.914,4.691c-9.207,9.209-4.459,29.519,10.371,44.348c9.43,9.432,21.18,15.061,31.434,15.061
			c3.752,0,9.039-0.814,12.914-4.689C168.335,70.26,169.802,63.643,168.317,55.773z"/>
		<path style="fill:#FFBBD2;" d="M232.913,64.039c7.67-7.67,12.82-16.801,14.502-25.713c1.484-7.869,0.018-14.486-4.131-18.635
			C239.407,15.814,234.122,15,230.37,15c-10.254,0-22.006,5.631-31.436,15.06c-14.83,14.83-19.578,35.141-10.369,44.348
			c3.877,3.877,9.162,4.691,12.916,4.691C211.735,79.1,223.485,73.469,232.913,64.039z"/>
		<rect x="159.679" y="94.1" style="fill:#FFBBD2;" width="33.395" height="243.652"/>
		<path style="fill:#3CBCC6;" d="M317.778,79.1h-79.137c1.678-1.398,3.309-2.883,4.879-4.453
			c9.781-9.781,16.399-21.691,18.635-33.539c2.432-12.889-0.504-24.262-8.266-32.023C247.948,3.141,239.815,0,230.37,0
			c-14.145,0-29.861,7.272-42.043,19.453c-4.902,4.904-8.896,10.209-11.982,15.656c-3.125-5.557-7.131-10.865-11.922-15.656
			C152.241,7.273,136.524,0,122.38,0c-9.445,0-17.578,3.143-23.521,9.084C83.386,24.56,87.942,53.359,109.229,74.646
			c1.572,1.572,3.209,3.053,4.889,4.453H34.974c-17.149,0-31.1,13.951-31.1,31.1v8.1c0,17.148,13.951,31.1,31.1,31.1h4.574v172.254
			c0,17.148,13.951,31.1,31.1,31.1h211.453c17.15,0,31.102-13.951,31.102-31.1V149.398h4.576c17.148,0,31.1-13.951,31.1-31.1v-8.1
			C348.878,93.051,334.927,79.1,317.778,79.1z M198.935,30.06c9.43-9.43,21.182-15.06,31.436-15.06
			c3.752,0,9.037,0.814,12.914,4.691c4.148,4.148,5.615,10.766,4.131,18.635c-1.682,8.912-6.832,18.043-14.502,25.713
			c-9.428,9.43-21.178,15.061-31.432,15.061c-3.754,0-9.039-0.814-12.916-4.691C179.356,65.201,184.104,44.891,198.935,30.06z
			 M119.837,64.039c-14.83-14.828-19.578-35.139-10.371-44.348C113.343,15.814,118.628,15,122.38,15
			c10.254,0,22.006,5.631,31.437,15.06c7.668,7.668,12.818,16.799,14.5,25.713c1.484,7.869,0.018,14.486-4.133,18.637
			c-3.875,3.875-9.162,4.689-12.914,4.689C141.017,79.1,129.267,73.471,119.837,64.039z M144.679,337.752H70.647
			c-8.877,0-16.1-7.223-16.1-16.1V149.398h90.131V337.752z M144.679,134.398H34.974c-8.877,0-16.1-7.223-16.1-16.1v-8.1
			c0-8.877,7.223-16.1,16.1-16.1h109.705V134.398z M193.073,337.752h-33.395V94.1h33.395V337.752z M298.202,321.652
			c0,8.877-7.223,16.1-16.102,16.1h-74.027V149.398h90.129V321.652z M333.878,118.299c0,8.877-7.223,16.1-16.1,16.1H208.073V94.1
			h109.705c8.877,0,16.1,7.223,16.1,16.1V118.299z"/>
	</g>
</g>
<g>
</g>
<g>
</g>
<g>
</g>
<g>
</g>
<g>
</g>
<g>
</g>
<g>
</g>
<g>
</g>
<g>
</g>
<g>
</g>
<g>
</g>
<g>
</g>
<g>
</g>
<g>
</g>
<g>
</g>
</svg>
